@startuml
class Prenda <<Entity>>{
	TipoPrenda 	tipoPrenda
	Estado 		estado
	BigDecimal 	precioBase
	Stock		stock
	
	Integer		getCantidad()
	BigDecimal 	precioVenta()
	
	void removerStock(cantidad)
	void agregarStock(cantidad)
}

note left of Prenda
precioVenta = 
estado.precioVenta(precioBase)
end note

Prenda -left- TipoPrenda
Prenda -right-> Estado

enum TipoPrenda {
	SACO,
	PANTALON,
	CAMISA
}

interface Estado {
	precioVenta(precioBase)
}

class Nueva {
	BigDecimal precioVenta(precioBase)
}
note left of Nueva
En este caso 
no modifican 
el precio base
end note

class Promocion {
	BigDecimal precioVenta(precioBase)
}

note left of Promocion
Le resta un valor fijo
definido por el usuario
end note

class Liquidacion {
	BigDecimal precioVenta(precioBase)
}

note left of Liquidacion
Es un 50% del valor
del producto
end note

Estado ^.. Nueva
Estado ^.. Promocion
Estado ^.. Liquidacion

abstract class Venta {
	Date 		fecha
	Cliente		cliente
	List<Item> 	items
	
	{abstract} BigDecimal	recargo()
	BigDecimal 	total()
	
	void agregarItem(Prenda, cantidad)
	void removerItem(Prenda, cantidad)
}

note right of Venta
total =
suma de todos los item.precio + recargo
end note

Venta "1" --> "*" Item

class Item {
	Prenda	prenda
	Integer cantidad
	
	BigDecimal precio()
	
	void removerStock(Prenda, cantidad)
	void agregarStock(Prenda, cantidad)
}

note right of Item
precio =
precio.precioVenta() * cantidad 
end note

Item --> Prenda

class PuntoDeVenta {
	Venta ventas
	
	BigDecimal gananciaDia(fecha)
}

class Tienda {
	PuntoDeVenta	PuntoDeVentas
	
	BigDecimal 		gananciaDia(fecha)
}


class Cliente {
	String nombre
	String apellido
}

Venta <-- Cliente
Venta ^-- VentaTarjeta
Venta ^-- VentaMercadopago
Venta ^-- VentaEfectivo

PuntoDeVenta "0" -right-> "*" Venta
Tienda "1" -right-> "*" PuntoDeVenta

class VentaTarjeta {
	Integer		cantidadCuotas
	BigDecimal	coeficienteTarjeta
	
	BigDecimal	recargo()
}

note right of VentaTarjeta
recargo =
cantidadCuotas * coeficienteTarjeta
+ 0,01 
end note

class VentaMercadopago {
	BigDecimal	coeficienteMercadopago
	
	BigDecimal	recargo()
}

note right of VentaMercadopago
recargo =
coeficienteMercadopago
* 0,02 
end note

class VentaEfectivo {	
	BigDecimal	recargo()
}

note right of VentaEfectivo
recargo = 0 
end note

class Stock  {
	Prenda 	prenda
	Integer cantidad
	
	Integer getCantidad()
	
	void agregarStock(cantidad)
	void removerStock(cantidad)
}

Prenda --> Stock



@enduml